<svg id="Capa_1" data-name="Capa 1" xmlns="http://www.w3.org/2000/svg" viewBox="0 0 81.29 74.41"><path d="M599.1,408.05a69.63,69.63,0,0,1-15.06.75,59.44,59.44,0,0,1-17.85-3.51c-7.27-2.81-12.85-8.38-17.25-14.69a121.57,121.57,0,0,1-10-18c-3.14-6.72-6.33-14.22-6.57-21.73-.08-2.7.26-5.75,2.2-7.81,2.32-2.47,6-2.71,9.15-2.43a43.27,43.27,0,0,1,13,3.7A82.19,82.19,0,0,1,569,350.91c5.82,3.74,11.71,8.38,15.4,14.31,2.2,3.54,3.38,7.77,1.44,11.71a3.28,3.28,0,0,0-.34.6c-.1.42-.52.08.17.14.52,0,.34.15.07-.25a10.45,10.45,0,0,1-1.25-3.19,23.74,23.74,0,0,1-.79-7.26,26.65,26.65,0,0,1,3.78-12.57c2-3.2,5.26-5.9,9.21-4.49,4.47,1.59,7.63,6.56,9.35,10.72a21.88,21.88,0,0,1,.45,15.39,25.29,25.29,0,0,1-1.69,3.93c-.92,1.7,1.67,3.21,2.59,1.51a27,27,0,0,0,3.31-13.2A26.58,26.58,0,0,0,604.19,352c-3.06-3.62-7.9-6.77-12.79-5-4.41,1.64-7.06,6.05-8.69,10.23A29.18,29.18,0,0,0,581,372.39c.38,2.38,1,5.35,2.61,7.23s3.79.79,4.78-1.17c4.68-9.31-3.26-18.5-10-24.22a80,80,0,0,0-21.85-13.13c-7.1-2.89-19.21-6.77-24.87.79-2.07,2.76-2.51,6.4-2.3,9.76a46.36,46.36,0,0,0,2.73,12.28,129.48,129.48,0,0,0,9.64,20.76c4.44,7.89,9.86,15.71,17.68,20.59a40.52,40.52,0,0,0,13.63,5.06,75.81,75.81,0,0,0,19.42,1.44c2.47-.15,4.94-.44,7.39-.83,1.9-.31,1.09-3.2-.8-2.9Z" transform="translate(-529.36 -337.49)"/></svg>