<svg id="Capa_2" data-name="Capa 2" xmlns="http://www.w3.org/2000/svg" viewBox="0 0 63.01 57.58"><path d="M688.86,312.39A23.86,23.86,0,0,1,676.52,316c-3.32,0-6.79-.27-9.75-1.92s-6.26-5.87-5.32-9.63c.74-3,3.94-4.8,6.6-5.8a27.19,27.19,0,0,1,11.93-1.5,22.22,22.22,0,0,1,6,1.36,14.47,14.47,0,0,1,5.27,3.1c0,.05.44.5.41.48s0-.33.09-.34-.21.1-.17.1a6.06,6.06,0,0,0-1,.33c-.43.11-.88.19-1.32.26a23.66,23.66,0,0,1-3.95.19,22.62,22.62,0,0,1-8.92-2.6,51.72,51.72,0,0,1-17.07-14,30.31,30.31,0,0,1-4.94-8.29c-.8-2.2-1.34-4.74-.4-6.89s3.56-3.71,5.82-4.55a31.46,31.46,0,0,1,10.89-1.74c8.81,0,18,2.59,25,8,10.09,7.82,14.73,21.15,14.71,33.63q0,.59,0,1.17c-.09,1.93,2.91,1.93,3,0A49.51,49.51,0,0,0,712,293.94c-1.93-8.26-5.93-16.19-12.28-21.92-7.45-6.73-17.56-10.12-27.51-10.45a35.57,35.57,0,0,0-12.68,1.64c-3,1.05-6.21,2.75-7.86,5.64-3.33,5.8,1,13.2,4.45,17.85a53.7,53.7,0,0,0,19.17,16.11,25,25,0,0,0,10.5,2.84c2.49,0,8.54.09,8.84-3.37.18-2.1-2.1-3.62-3.64-4.59a23.48,23.48,0,0,0-6.36-2.75,30.17,30.17,0,0,0-13.92-.18c-3.81.83-7.91,2.49-10.41,5.6-2.92,3.62-2.21,8.3.28,12,5,7.39,16.15,8,24,5.4a29.08,29.08,0,0,0,5.84-2.74c1.65-1,.14-3.61-1.51-2.59Z" transform="translate(-650.45 -261.54)"/></svg>