<svg id="Capa_3" data-name="Capa 3" xmlns="http://www.w3.org/2000/svg" viewBox="0 0 35.22 22.03"><path d="M553.29,293.72a13.78,13.78,0,0,1,2.07-6.3,10.79,10.79,0,0,1,3.8-3.46c.82-.46,2.7-1.61,3.69-1.08-.08,0,.07.14.13.48a6.33,6.33,0,0,1,0,1.22,16.24,16.24,0,0,1-.88,3.49,24.75,24.75,0,0,1-1.27,3c-.19.38-.4.75-.61,1.12-.05.08-.1.16-.16.24s-.09.14,0,0l-.12.13a1.25,1.25,0,0,1,.84-.32l1.06.44c.55.54.28.91.32.14,0-.25,0-.51.08-.77,0,.15.1-.45.15-.61a5.42,5.42,0,0,1,1-1.71,15,15,0,0,1,4.15-3.35,30.65,30.65,0,0,1,11.1-4,8.9,8.9,0,0,1,3.69.06c.12,0,.28.19.23.12.16.25-.06-.25,0-.13,0,.36,0,.05,0,0a.71.71,0,0,1,0,.29c-.08.33.13-.4,0,.07,0,.19-.34,1-.19.66a15.45,15.45,0,0,1-1.73,2.86c-3.35,4.59-7.7,8.54-11.85,12.38-1.42,1.32.7,3.43,2.12,2.12A115.51,115.51,0,0,0,581.48,290a19.54,19.54,0,0,0,3.76-5.84,3.51,3.51,0,0,0-.58-3.69c-1.82-1.82-5.27-1.25-7.51-.84a34.71,34.71,0,0,0-10.34,3.72c-2.82,1.55-5.88,3.69-7.11,6.79-.49,1.23-1.05,3.6,0,4.65,1.26,1.26,2.53-.12,3.17-1.18a20.28,20.28,0,0,0,3.12-9.64c0-1.8-.72-3.62-2.65-4-2.41-.53-5.19,1-7.07,2.35a15.25,15.25,0,0,0-6,11.47c-.14,1.93,2.86,1.92,3,0Z" transform="translate(-550.29 -279.17)"/></svg>