<svg id="Capa_4" data-name="Capa 4" xmlns="http://www.w3.org/2000/svg" viewBox="0 0 70.06 27.27"><path d="M572.28,219.12h66.5a1.5,1.5,0,0,0,0-3h-66.5a1.5,1.5,0,0,0,0,3Z" transform="translate(-570.83 -191.84)"/><path d="M595.23,215.58a19,19,0,0,1-.49-8.14c.29-1.8.71-3.63,2.2-4.81a12.58,12.58,0,0,1,5.32-2.07,43.74,43.74,0,0,1,7.31-.72c4.42-.15,8.88-.14,13.3.07,4,.18,8.56.39,12.09,2.4,1.81,1,2.41,2.41,2.7,4.43a25.55,25.55,0,0,1-.29,8.85c-.4,1.89,2.5,2.69,2.89.8a28.78,28.78,0,0,0,.47-9.07c-.25-2.28-.64-4.5-2.33-6.17-3.23-3.17-8.59-3.72-12.87-4.07a140.65,140.65,0,0,0-15.23-.26c-4.76.12-10.59.25-14.66,3.07a9.2,9.2,0,0,0-3.72,6.35,22.28,22.28,0,0,0,.42,10.14,1.5,1.5,0,0,0,2.89-.8Z" transform="translate(-570.83 -191.84)"/><path d="M618.65,194.1a2,2,0,1,1-3.75-.5,2,2,0,0,1,1.6-1.17.3.3,0,0,0-.16-.58,2.56,2.56,0,1,0,2.91,2.25.31.31,0,0,0-.3-.3.3.3,0,0,0-.3.3Z" transform="translate(-570.83 -191.84)"/></svg>