<svg id="Capa_6" data-name="Capa 6" xmlns="http://www.w3.org/2000/svg" viewBox="0 0 31.59 33.36"><defs><style>.cls-1{fill:#202020;}</style></defs><path class="cls-1" d="M568.46,374.77l.09.06.07,0Z" transform="translate(-544.59 -370.38)"/><path class="cls-1" d="M569.16,375.21c.13.07.27.16.2.1l-.29-.17-.17-.1-.22-.13.49.3S569.17,375.21,569.16,375.21Z" transform="translate(-544.59 -370.38)"/><path class="cls-1" d="M575.51,385v0Z" transform="translate(-544.59 -370.38)"/><path class="cls-1" d="M574.81,392.19c0-.06,0-.08,0-.09S574.8,392.19,574.81,392.19Z" transform="translate(-544.59 -370.38)"/><path class="cls-1" d="M574.18,393.27l0-.06A.08.08,0,0,0,574.18,393.27Z" transform="translate(-544.59 -370.38)"/><path class="cls-1" d="M575.51,385v.2S575.52,385.06,575.51,385Z" transform="translate(-544.59 -370.38)"/><path class="cls-1" d="M570.53,376.15l-.09-.06.08.06Z" transform="translate(-544.59 -370.38)"/><polygon class="cls-1" points="29.98 11.47 29.96 11.42 29.91 11.39 29.98 11.47"/><path class="cls-1" d="M573.42,379.65a.13.13,0,0,0,.11,0,.19.19,0,0,1-.1-.08A.06.06,0,0,0,573.42,379.65Z" transform="translate(-544.59 -370.38)"/><path class="cls-1" d="M570.92,376.57l-.06-.05Z" transform="translate(-544.59 -370.38)"/><path class="cls-1" d="M575.12,383.55l0,0Z" transform="translate(-544.59 -370.38)"/><path class="cls-1" d="M557.78,370.64l0,.1C557.8,370.68,557.8,370.64,557.78,370.64Z" transform="translate(-544.59 -370.38)"/><polygon class="cls-1" points="16.59 2.61 16.55 2.65 16.55 2.96 16.59 2.61"/><path class="cls-1" d="M572.9,395.1h0S572.9,395.07,572.9,395.1Z" transform="translate(-544.59 -370.38)"/><path class="cls-1" d="M555.28,399.66c.08.34-.49.14-.31.56C555,400.1,555.45,399.94,555.28,399.66Z" transform="translate(-544.59 -370.38)"/><path class="cls-1" d="M570.58,376.19l.08.06Z" transform="translate(-544.59 -370.38)"/><path class="cls-1" d="M555,400.22h0l0,0Z" transform="translate(-544.59 -370.38)"/><path class="cls-1" d="M569.4,398.73a.12.12,0,0,0,.09,0Z" transform="translate(-544.59 -370.38)"/><path class="cls-1" d="M572.38,396.34l-.08.06Z" transform="translate(-544.59 -370.38)"/><path class="cls-1" d="M567.86,400c-.05,0-.08,0-.13,0l0,0S567.8,400,567.86,400Z" transform="translate(-544.59 -370.38)"/><path class="cls-1" d="M566,400.79s0,0,0,0l0,0Z" transform="translate(-544.59 -370.38)"/><path class="cls-1" d="M551.08,374.14a2,2,0,0,1,.36.29C551.19,374.17,551.41,373.84,551.08,374.14Z" transform="translate(-544.59 -370.38)"/><path class="cls-1" d="M570.53,376.16l.05,0-.06,0Z" transform="translate(-544.59 -370.38)"/><path class="cls-1" d="M568.56,401.49l-.34.14A2.23,2.23,0,0,0,568.56,401.49Z" transform="translate(-544.59 -370.38)"/><path class="cls-1" d="M545,389.64l-.06-.08S545,389.62,545,389.64Z" transform="translate(-544.59 -370.38)"/><path class="cls-1" d="M567.26,402.15a.61.61,0,0,0-.25-.06.14.14,0,0,0,0,.07Z" transform="translate(-544.59 -370.38)"/><path class="cls-1" d="M551.44,374.43Z" transform="translate(-544.59 -370.38)"/><path class="cls-1" d="M553,372c-.36.17.15.67.27,1.05-.28.4-.42-.32-.72-.54-.16.31,0,.95-.2,1-.07-.08-.13-.1-.16-.24,0,.59-.71.52-.59,1.27a.69.69,0,0,1-.13-.11,4.75,4.75,0,0,1,.58.7c-.12.1,0,.5-.28.19.08,0,0-.18-.07-.32v.25c-.5-.4.05-.31-.23-.67-.14.37-.13,1-.41,1-.43-.42.32-.53-.28-.73l.45-.06c-.82-.56.24-.1-.61-.72-.54.2-.27.63-.77.86.13.33.35.34.49.66-.11.92-1.47-.67-1.28.31.18.38.69.92.15.94l-.4-.54c-.38.35.52.83-.15.95-.15-.24.09-.44,0-.43-.62-.07.12.42,0,.62l-.48-.31c-.24.52-.29,1.21-.48,1.78-.13-.12-.22-.31-.44-.28a2.15,2.15,0,0,1-.56,1.05,9,9,0,0,1-.86.89l.31.44c0,.06-.24,0-.3-.07-.27.2.27.13.39.33s-.32.1-.42,0c.22.64.31,1.6-.25,2l-.1-.13c-.28.36.79.68.3.93l-.07-.09a3.85,3.85,0,0,0-.26,1.29,1.9,1.9,0,0,1-.51,1.13c.62.16-.3.87.56.94-.44.49-.57.35-.81,1.07,0,.2.55.26.65.48l-.44,0,.48.27-.49.22.15.21a.32.32,0,0,1,.29-.21c.25.31-.16.86-.38.91.18.25.33.49.52.73-.17,0-.27-.1-.39-.19.52.34-.43.17.07.48.08-.08.25,0,.34,0-.2.25-.07.69.12,1l-.29,0a10.58,10.58,0,0,0,.83,1.79c0-.27.49-.4.62-.25l-.36.24c.3,0,.06-.24.47-.14.06.23-.37.35-.56.27l.27.21c-.11.07-.2,0-.36.09.3,0-.13.66.36.62l-.1.08a9.75,9.75,0,0,0,1,1.24c.31-.19.36,0,.68,0a3.54,3.54,0,0,0,.52,1.25c.35.16.29-.11.54-.12-.23.22.13.55-.21.51a3.93,3.93,0,0,0,1.24.83c0-.14,0-.23.11-.27s.13.28,0,.37h0c.46.1.64.57.87,1s.51.8,1,.74h0c.24,0,.49.07.74.1.24.19-.28.08-.17.34.87,0,1,.65,1.65.61,0,.45.42.62.85.73s.88.15,1.1.49l0-.19c.21-.12.15.17.25.23,0-.13-.12-.2,0-.26,1.36.12,2.68.86,4.12,1,.52,0,.3-.81.93-.46l-.17.31a4.61,4.61,0,0,1,1.54-.29,5,5,0,0,0,1.49-.39c-.05.07,0,.15-.13.17.25.17.76-.2.72-.35.16,0,.07.13.19.19s.44-.39.6-.24,0,.08-.07.11c.11-.12.61-.19.42-.36.38,0,.63-.35,1-.34.09-.28.62-.16.54-.49.12.33.7-.05.83-.3,0,.13.23,0,.21.17.24-.14.41-.34.29-.45.61.06.66-.79,1.15-.54.53-.63,1-1.16,1.48-1.71.18.24-.54.56-.32.78a7,7,0,0,1,1-1.43c.14-.11,0,.15,0,.23.35-.59.88-1,1.09-1.54,0,0,0,.09,0,.15.06-.1.18-.2.08-.26l0,.11c-.25,0,0-.59-.09-.65.17.35.41-.41.58.08,0-.08,0-.19,0-.22s.13-.09.14.06c.16-.4,0-.33.17-.66,0,0,0,.11.07.18a1,1,0,0,1,.2-.69s.08,0,0,.1c.25-.48.15-.95.5-1.44.13.25.15-.15.33-.11l.06-.32-.13.08c.09-.26.05-.54.19-.74v.22l.14-.51-.16.26c0-.29-.23-.05-.06-.37,0,.07.09-.26.21-.38h0a.76.76,0,0,1,0-.48c.07,0,.17.09.22.06-.11-.16.12-.64,0-.84,0,.07.11.09.13.07l-.1-.13c.06-.12.08-.14.14-.1.07-.38-.22.08-.07-.36a.41.41,0,0,1,0,.1,12.17,12.17,0,0,0,.13-1.3c.15-.11,0,.38.15.25,0-.6-.07-1.28-.11-1.86v.11c-.19-.08.08-.44,0-.73,0,.07.11.08.09.07a6.79,6.79,0,0,0-.29-1.41l.06.07a5.43,5.43,0,0,0-.14-.87c0-.07-.08-.21-.12-.11a2.35,2.35,0,0,0-.26-1.1,4.84,4.84,0,0,1-.35-1c0,.08.1.18.07.11l-.25-.54c0,.07,0,.09,0,.22a1.73,1.73,0,0,1-.21-.33c.15.22.08,0,0-.16s0,0,0,0c-.06-.32-.12,0-.24-.41h0a3.89,3.89,0,0,1-.25-.4c0-.08.1.14.14.13a3.12,3.12,0,0,1-.37-.58l.19.29a1.45,1.45,0,0,0-.17-.41v0c-.06-.13-.13-.24-.2-.36l.05.1c-.28-.19-.34-.51-.65-.79.29.28.07,0,.13,0s-.14-.23-.1-.2c-.15-.13-.17-.27-.38-.45,0,0-.13-.16-.08-.14-.17-.19,0,.05,0,.05a11.15,11.15,0,0,0-1-1.07c-.34-.33-.43-.35-.76-.64-.1-.11.11.06.11.06a3.21,3.21,0,0,0-.49-.42s0,0,0-.06a1.85,1.85,0,0,1-.29-.21l.15.1c-.17-.13-.33-.26-.52-.38,0,0,.12.07.18.11l-.6-.4.13.1c-.07,0,0,0,0,0a2.34,2.34,0,0,1,.26.19l-.13-.09.75.57-.11-.06.26.18c.05.05.08.09,0,0a2.81,2.81,0,0,1,.3.26s0,0,0,0l.17.14s0,0-.09,0c.27.28.49.41.57.54l0,0c.39.39.06,0,.37.29l.13.26h.06c0,.05.11.14.09.13.15.14,0,0,.08,0s.5.56.48.66-.14-.23.06,0c0,.11.21.27.32.49-.07,0-.19-.24-.08,0s.27.4.38.58c.05,0,.28.36.46.66,0,0,.29.59.39.91h0c.09,0,.22.34.34.56-.05,0-.09,0-.16-.14l.09.21a.57.57,0,0,1,.15.24l-.08,0a5,5,0,0,1,.37.94c.07,0,.07-.36.24,0,0,0-.08,0-.13-.05a.68.68,0,0,1,.08.19l-.11-.14c0,.18.07.08.11.21s0,.12,0,.11,0-.13,0-.17a1.17,1.17,0,0,1,0,.42s.06,0,.1.09c.08.3,0,.12,0,.3s0,.26.14.25,0,.11,0,.15.14.72.2.53v0h0a7.73,7.73,0,0,1,.18,1.58h0a6.29,6.29,0,0,0,.13.89c0,.1-.06.22-.11.18a1.13,1.13,0,0,1,0,.6c0-.24-.06.08,0-.24a1.23,1.23,0,0,0,0,.69c-.09-.11-.14.22-.12.36l.09-.2a1.56,1.56,0,0,1-.05.44l-.12-.09c-.28.57.12,1.15-.29,1.54.06.18.16-.3.24-.14-.09.28-.38.51-.4.59-.19.35.11.41-.05.78.06,0,.23,0,.17.27s-.35.25-.33.07,0-.09.07-.08,0-.21-.06-.13l0,.06c-.11.11-.25.47-.3.35,0,.22,0,.12.14,0-.22.31-.2.53-.41.85.06,0,.15-.06.12,0-.31.46,0,.26-.14.61-.18.14-.17-.17-.27.2-.16.17-.17,0-.17-.14,0,.36-.37.51-.5.66l0-.18a.73.73,0,0,1-.13.25l.17,0c-.08.08-.12.15-.17.12,0,.13.23,0,.22.28-.13.08-.17.4-.34.35.28-.34-.18-.06,0-.38a.46.46,0,0,1-.15.21s0,0,0-.06c-.36.26.07.28-.2.61-.05-.1-.22,0-.25,0,.11-.13.19,0,.16.21-.24.17-.14.28-.23.39l.13-.11c0,.11,0,.21-.14.39-.08,0,.06-.18,0-.15,0,.3-.47.25-.58.55-.15.05-.16-.13-.28-.08-.13.34-.36.16-.52.48.18,0,.18,0,.09.28a3.82,3.82,0,0,0,.33-.49l-.09.43c.12-.13.18-.34.27-.4,0,.22,0,.18.1.2-.32,0-.23.45-.55.52l-.26-.28c-.43.13-.41.65-.91.89l.19,0c0,.16-.26.21-.36.36-.07-.12-.19-.09-.3-.12.07.08-.32.22-.2.48l-.31,0c-.41.15-.21.59-.6.76,0-.19-.19-.19,0-.42-.12.07-.24.1-.19.19-.12,0-.24.37-.43.3,0,.08,0,.22-.12.28a.09.09,0,0,1,0-.07c0,.07-.18.2,0,.29a.94.94,0,0,0-.84.16c-.27.12-.54.24-.78.1a3.75,3.75,0,0,1-.87.4c0-.05,0-.08,0-.08-.41-.05-.11.51-.58.45-.28-.2.19-.19,0-.26-.18-.52-.49.22-.84-.07l.06,0c-.25-.16-.5.28-.87.29a.24.24,0,0,0,0-.09,1.69,1.69,0,0,1-1,.55c.1-.24.16-.13.08-.36-.16,0,.07.37-.25.45-.11-.12-.35-.22-.38-.47l.29,0c-.15-.32-.37,0-.53,0l0-.14c-.44,0-.46.38-.95.32l0,.11c-.3.35-.21-.22-.5,0l0-.38a4.27,4.27,0,0,1-1,.28,2.84,2.84,0,0,1,.85-.46c-.16,0-.57-.07-.69.1.07,0,.17-.1.23,0a1,1,0,0,1-.91.29c.22-.72-.84-.43-.91-1.07-.65.07-1.07-.51-1.68-.78-.05.69-.19-.07-.43.53-.16,0-.22-.07-.21-.12l-.27-.57c0-.22.21-.06.26-.2-.28-.2,0-.31-.1-.58-.07.23-.26.23-.38,0l.08.42c-.6,0-.06-.71-.65-.67l.24-.1c-.29,0-.7-.55-1.24-.25,0-.09.09-.28.2-.25a3,3,0,0,0-.85-.45c-.3-.14-.6-.28-.63-.58l.15-.09c-.1,0-.36.09-.32-.14.06-.05.16-.09.13-.14s-.42,0-.44-.19l.23,0c-.2-.58-.93-.37-1.34-.71a1,1,0,0,0,.29-1l.07,0c-.25-.61-1-.73-1.41-1.22.37-.61-.24-1.34-.09-2a.47.47,0,0,1-.53,0c.09-.17-.49-.29,0-.41v.06c.49-.25.29-.49.26-.72l-.72.12a.84.84,0,0,0,.16-1.13c-.17-.34-.31-.67.19-.87-.19-.13-.2-.31-.39-.45h.41a2.68,2.68,0,0,0,.1-1.08l.29.11c.06-.26-1.17-.41-1.18-.69l.63,0c.06-.5.72-.87.23-1.45.1,0,.27.08.28.16.07-.22.68-.72-.22-.87.58.15.17-.47,0-.8l.4.17c-.44-.38-.58-.44-.61-.8.08-.06.35.06.21.11.31-.15-.32-.33,0-.54l.22.21c.13-.23,0-.26-.25-.53s.33-.41.71-.26c-.21-.14-.44-.42-.26-.51a.43.43,0,0,1,.23.2c.45-.25-.13-.83.41-.87a.56.56,0,0,0,.26.1c-.19.28-.36.51-.38.47.37.2.58,0,1,.47-.16-.32-.55-1-.24-1.11l.14,0,0,.05c.07,0,.06-.1,0-.18a.67.67,0,0,0,.24-.1c.31.17.34-.13.44-.22-.39-.27-.21-.37-.63-.47,0,0,0,.05,0,.14s0,.05,0,.07l0,0c0,.08-.11.18-.18.29-.13-.22-.22-.43.08-.4-.2-.23-.4-.49-.49-.61.65.23,1.16.17,1.5.39.08-.47.53-.79.06-1.64,0-.17.29.09.43.16s-.06.16,0,.28c0-.33.46-.53.08-1.05.42,0,.26.56.51.2l.09.19c.63.11.63-.36.69-.88s.18-1,1-.68a.42.42,0,0,1-.22-.15,1.34,1.34,0,0,0,.78-.25,5.81,5.81,0,0,0,.69-.45,1.48,1.48,0,0,1,1.61-.26c.33.1.22-.33.31-.7l.22.54.13-.71c.34-.6,1,1.2,1.4.23l-.14-.38c.21,0,.61-.33.63.13,0-.07,0-.42.12-.22l0,.3c.14-.2.29-.37.45-.56.4.22,0,1.24.56,1.29a1.92,1.92,0,0,0,.47-1.14c-.08,0-.21-.19-.23-.51l.2-.17c0-.93.23-1.9-.36-2.51l-.38.59-.15-.44.34-.05c-.21-.41-.32,0-.44.24a.86.86,0,0,0-.2-.48l-.31.91c-.08-.36.11-.73-.18-.9-.14.42.25.78,0,1.08-.23-.38-.22-.73-.39-.34a.58.58,0,0,1,0-.5c-.16.31-.51.21-.53.7-.28-.46-.63.25-.77-.59,0,.2-.21.74-.37.82.09-1.08-.67.12-.86-.94a.72.72,0,0,1-.42.74c-.22.14-.47.24-.59.55,0-.07,0-.23,0-.2-.25,0-.41-.2-.62-.3.23.7-.06,1-.07,1.48-.54-.51-.17-.87-.51-1.45.23.54-.25.79.05,1.18-.39-.29-.26-.1-.63-.59.36.84-.13.24-.05.82-.49-.24-.46-.71-.66-.29C552.82,372.4,553,372,553,372Zm-5.23,7h0l.06-.17Zm-.35.61a1.3,1.3,0,0,0,.17-.26c.15.07.28.17.23.23S547.56,379.58,547.39,379.61Zm3.43.62c0,.11-.1.08-.18,0a1,1,0,0,0,.05-.16l0,0Z" transform="translate(-544.59 -370.38)"/><path class="cls-1" d="M550.42,379.75a.43.43,0,0,0,0-.05l-.12,0,.1.11Z" transform="translate(-544.59 -370.38)"/><path class="cls-1" d="M575.51,384.87h0v0Z" transform="translate(-544.59 -370.38)"/><polygon class="cls-1" points="0.12 18.49 0.22 18.48 0.12 18.42 0.12 18.49"/><path class="cls-1" d="M574.68,381.43s0,0,0,0Z" transform="translate(-544.59 -370.38)"/><path class="cls-1" d="M574,380.07a1.14,1.14,0,0,0-.1-.19Z" transform="translate(-544.59 -370.38)"/><path class="cls-1" d="M573.34,379.07h0Z" transform="translate(-544.59 -370.38)"/><path class="cls-1" d="M573.31,397l0,0C573.25,397.11,573.28,397.05,573.31,397Z" transform="translate(-544.59 -370.38)"/><path class="cls-1" d="M575.49,391.7a1.36,1.36,0,0,1,0,.2C575.54,391.8,575.56,391.73,575.49,391.7Z" transform="translate(-544.59 -370.38)"/><polygon class="cls-1" points="24.01 31.09 24.01 31.09 23.97 31.1 24.01 31.09"/><path class="cls-1" d="M575.43,392.15a.43.43,0,0,0,.08-.25A2.41,2.41,0,0,0,575.43,392.15Z" transform="translate(-544.59 -370.38)"/><polygon class="cls-1" points="25.1 5.15 25.05 5.11 25.05 5.11 25.1 5.15"/><path class="cls-1" d="M569.63,375.49l0,0Z" transform="translate(-544.59 -370.38)"/><path class="cls-1" d="M569.47,375.39l.11.07Z" transform="translate(-544.59 -370.38)"/><path class="cls-1" d="M570.92,376.47h0Z" transform="translate(-544.59 -370.38)"/><path class="cls-1" d="M571.28,376.79c-.08-.08-.2-.2-.32-.3h0C571,376.52,571.19,376.73,571.28,376.79Z" transform="translate(-544.59 -370.38)"/><path class="cls-1" d="M572.53,378.31l-.24-.31c0,.06.08.14,0,0C572.54,378.42,572.21,377.91,572.53,378.31Z" transform="translate(-544.59 -370.38)"/><path class="cls-1" d="M573.24,379.31c-.13-.17,0,0,0,0S573.31,379.45,573.24,379.31Z" transform="translate(-544.59 -370.38)"/><path class="cls-1" d="M575.66,387.6l-.1,0C575.57,387.74,575.6,387.58,575.66,387.6Z" transform="translate(-544.59 -370.38)"/><polygon class="cls-1" points="31.47 18.94 31.56 18.78 31.47 18.7 31.47 18.94"/><polygon class="cls-1" points="30.56 19.81 30.56 19.73 30.55 20 30.56 19.81"/><path class="cls-1" d="M566.23,400.49l.14.22C566.45,400.63,566.37,400.37,566.23,400.49Z" transform="translate(-544.59 -370.38)"/><path class="cls-1" d="M560.27,401.55c0-.15-.21-.26-.33-.12C560.07,401.46,560.2,401.58,560.27,401.55Z" transform="translate(-544.59 -370.38)"/><polygon class="cls-1" points="3.86 19.7 4.01 19.78 3.87 19.59 3.86 19.7"/></svg>